<?xml version="1.0" encoding="utf-8"?>
<!-- Generator: Adobe Illustrator 24.3.0, SVG Export Plug-In . SVG Version: 6.00 Build 0)  -->
<svg version="1.1" id="Layer_1" xmlns="http://www.w3.org/2000/svg" xmlns:xlink="http://www.w3.org/1999/xlink" x="0px" y="0px"
	 viewBox="0 0 1000 1000" style="enable-background:new 0 0 1000 1000;" xml:space="preserve">
<style type="text/css">
	.st0{fill:url(#SVGID_1_);}
	.st1{fill:url(#SVGID_2_);}
	.st2{fill:#6F6F6F;}
</style>
<g>
	<g>
		<linearGradient id="SVGID_1_" gradientUnits="userSpaceOnUse" x1="217.9634" y1="417.2969" x2="284.0486" y2="626.676">
			<stop  offset="0" style="stop-color:#BDBDBD"/>
			<stop  offset="1" style="stop-color:#6F6F6F"/>
		</linearGradient>
		<path class="st0" d="M242.82,542.61l5.39-11.31h-10.99v-21.18h15.48l6.51-13.66l3.23-6.78h-25.22v-22.21h26.36
			c2.91,0,5.73,0.39,8.41,1.13c0.14,0.03,0.28,0.08,0.43,0.12h0l8.69-18.24c-2.93-1.05-5.97-1.84-9.12-2.35v-21.89H259.2v21.21H250
			v-21.21h-12.79v21.21H207.6v20.02h9.65v63.83h-9.65v20.02h31.07L242.82,542.61z"/>
		<linearGradient id="SVGID_2_" gradientUnits="userSpaceOnUse" x1="294.7061" y1="570.42" x2="237.7811" y2="438.2495">
			<stop  offset="0" style="stop-color:#BDBDBD"/>
			<stop  offset="1" style="stop-color:#6F6F6F"/>
		</linearGradient>
		<path class="st1" d="M286.07,451.89l-8.62,18.1c11.45,4.85,19.5,16.2,19.5,29.4c0,14.69-9.97,27.09-23.5,30.79
			c-2.68,0.74-5.5,1.13-8.41,1.13h-16.79l-9.54,20.02l-0.03,0.07v22.37h12.79v-22.44h9.2v22.44h12.79v-23.12
			c10.97-1.79,20.79-7.01,28.31-14.53c9.4-9.4,15.21-22.38,15.21-36.73C316.97,478.2,304.27,459.96,286.07,451.89z"/>
	</g>
	<g>
		<g>
			<path class="st2" d="M383.59,473.67c4.09,0,7.59,0.42,10.52,1.25c2.93,0.83,5.32,2.12,7.19,3.86c1.87,1.74,3.24,3.96,4.12,6.66
				c0.88,2.7,1.33,5.89,1.33,9.58v10.29c0,3.68-0.44,6.88-1.33,9.57c-0.88,2.7-2.26,4.92-4.12,6.66c-1.87,1.74-4.26,3.03-7.19,3.86
				c-2.93,0.83-6.43,1.25-10.52,1.25h-35.42c-1.51,0-2.27-0.76-2.27-2.27v-48.44c0-1.51,0.76-2.27,2.27-2.27H383.59z M357.48,515.15
				c0,0.66,0.33,0.98,0.98,0.98h24.83c2.22,0,4.09-0.2,5.6-0.61c1.51-0.4,2.74-1.06,3.67-1.97c0.93-0.91,1.6-2.12,2.01-3.63
				c0.4-1.51,0.61-3.38,0.61-5.6V496c0-2.22-0.2-4.09-0.61-5.6c-0.4-1.51-1.07-2.73-2.01-3.63c-0.93-0.91-2.16-1.56-3.67-1.97
				c-1.51-0.4-3.38-0.61-5.6-0.61h-24.83c-0.66,0-0.98,0.35-0.98,1.06V515.15z"/>
			<path class="st2" d="M472.38,473.67c1.16,0,1.74,0.56,1.74,1.67v7.19c0,1.11-0.58,1.67-1.74,1.67H439.3
				c-1.97,0-3.59,0.16-4.88,0.49c-1.29,0.33-2.32,0.88-3.1,1.67c-0.78,0.78-1.32,1.84-1.63,3.18c-0.3,1.34-0.45,2.99-0.45,4.96v0.76
				H472c1.11,0,1.67,0.56,1.67,1.67v5.98c0,1.11-0.56,1.67-1.67,1.67h-42.76v1.29c0,1.97,0.15,3.62,0.45,4.96
				c0.3,1.34,0.84,2.4,1.63,3.18c0.78,0.78,1.82,1.34,3.1,1.67c1.29,0.33,2.91,0.49,4.88,0.49h33.08c1.16,0,1.74,0.56,1.74,1.67
				v7.19c0,1.11-0.58,1.67-1.74,1.67h-33.3c-3.84,0-7.09-0.35-9.76-1.06c-2.67-0.71-4.86-1.85-6.55-3.44
				c-1.69-1.59-2.93-3.66-3.71-6.21c-0.78-2.55-1.17-5.64-1.17-9.27v-13.02c0-3.63,0.39-6.71,1.17-9.23
				c0.78-2.52,2.02-4.58,3.71-6.17c1.69-1.59,3.87-2.75,6.55-3.48c2.67-0.73,5.93-1.1,9.76-1.1H472.38z"/>
			<path class="st2" d="M529.07,473.67c3.83,0,7.1,0.37,9.8,1.1c2.7,0.73,4.89,1.89,6.58,3.48c1.69,1.59,2.91,3.65,3.67,6.17
				c0.76,2.52,1.14,5.6,1.14,9.23v11.73c0,6.16-1.15,10.79-3.44,13.89c-2.3,3.1-6.12,5.01-11.47,5.71l8.7,12.04
				c0.2,0.25,0.26,0.63,0.19,1.13c-0.08,0.5-0.47,0.76-1.17,0.76h-9.69c-0.66,0-1.11-0.08-1.36-0.23c-0.25-0.15-0.5-0.38-0.76-0.68
				l-8.7-12.64h-16.88c-3.84,0-7.09-0.35-9.76-1.06c-2.67-0.71-4.86-1.85-6.55-3.44c-1.69-1.59-2.93-3.66-3.71-6.21
				c-0.78-2.55-1.17-5.64-1.17-9.27v-11.73c0-3.63,0.39-6.71,1.17-9.23c0.78-2.52,2.02-4.58,3.71-6.17
				c1.69-1.59,3.87-2.75,6.55-3.48c2.67-0.73,5.93-1.1,9.76-1.1H529.07z M496.07,504.55c0,1.97,0.16,3.62,0.49,4.96
				c0.33,1.34,0.87,2.4,1.63,3.18c0.76,0.78,1.78,1.34,3.07,1.67c1.29,0.33,2.91,0.49,4.88,0.49h22.48c1.97,0,3.6-0.16,4.88-0.49
				c1.29-0.33,2.31-0.88,3.07-1.67c0.76-0.78,1.3-1.84,1.63-3.18c0.33-1.34,0.49-2.99,0.49-4.96v-10.07c0-1.97-0.16-3.62-0.49-4.96
				c-0.33-1.34-0.87-2.4-1.63-3.18c-0.76-0.78-1.78-1.34-3.07-1.67c-1.29-0.33-2.91-0.49-4.88-0.49h-22.48
				c-1.97,0-3.6,0.16-4.88,0.49c-1.29,0.33-2.31,0.88-3.07,1.67c-0.76,0.78-1.3,1.84-1.63,3.18c-0.33,1.34-0.49,2.99-0.49,4.96
				V504.55z"/>
			<path class="st2" d="M571.68,473.67c1.11,0,1.67,0.56,1.67,1.67v30.2c0,2.02,0.16,3.7,0.49,5.03c0.33,1.34,0.87,2.4,1.63,3.18
				c0.76,0.78,1.78,1.34,3.07,1.67c1.29,0.33,2.91,0.49,4.88,0.49h20.97c1.97,0,3.6-0.16,4.88-0.49c1.29-0.33,2.31-0.88,3.07-1.67
				c0.76-0.78,1.29-1.84,1.59-3.18c0.3-1.34,0.45-3.01,0.45-5.03v-30.2c0-1.11,0.55-1.67,1.67-1.67h8.25c1.11,0,1.67,0.56,1.67,1.67
				v31.34c0,3.63-0.38,6.72-1.14,9.27c-0.76,2.55-1.98,4.62-3.67,6.21c-1.69,1.59-3.89,2.74-6.58,3.44c-2.7,0.71-5.97,1.06-9.8,1.06
				h-21.8c-3.84,0-7.09-0.35-9.76-1.06c-2.67-0.71-4.86-1.85-6.55-3.44c-1.69-1.59-2.93-3.66-3.71-6.21
				c-0.78-2.55-1.17-5.64-1.17-9.27v-31.34c0-1.11,0.58-1.67,1.74-1.67H571.68z"/>
			<path class="st2" d="M648.05,473.67c1.11,0,1.67,0.56,1.67,1.67v49.65c0,1.11-0.56,1.67-1.67,1.67h-8.17
				c-1.16,0-1.74-0.55-1.74-1.67v-49.65c0-1.11,0.58-1.67,1.74-1.67H648.05z"/>
			<path class="st2" d="M719.66,473.67c1.16,0,1.74,0.56,1.74,1.67v7.42c0,1.16-0.58,1.74-1.74,1.74h-23.77v40.5
				c0,1.11-0.56,1.67-1.67,1.67h-8.25c-1.11,0-1.67-0.55-1.67-1.67v-40.5h-23.77c-1.16,0-1.74-0.58-1.74-1.74v-7.42
				c0-1.11,0.58-1.67,1.74-1.67H719.66z"/>
			<path class="st2" d="M737.37,473.67c0.81,0,1.41,0.3,1.82,0.91l20.21,27.32l20.36-27.32c0.4-0.61,1.01-0.91,1.82-0.91h9.92
				c0.4,0,0.68,0.16,0.83,0.49c0.15,0.33,0.1,0.67-0.15,1.02l-27.17,35.27v14.53c0,1.11-0.56,1.67-1.67,1.67h-8.17
				c-1.16,0-1.74-0.55-1.74-1.67v-14.53l-26.87-35.27c-0.25-0.35-0.32-0.69-0.19-1.02c0.12-0.33,0.42-0.49,0.87-0.49H737.37z"/>
		</g>
	</g>
</g>
</svg>
