<?xml version="1.0" encoding="utf-8"?>
<!-- Generator: Adobe Illustrator 24.3.0, SVG Export Plug-In . SVG Version: 6.00 Build 0)  -->
<svg version="1.1" id="Layer_1"  width="150" height="60" xmlns="http://www.w3.org/2000/svg" xmlns:xlink="http://www.w3.org/1999/xlink" x="0px" y="0px"
	 viewBox="284 300 438 438"  style="enable-background:new 0 0 1000 1000;" xml:space="preserve">
<style type="text/css">
	.st0{fill:url(#SVGID_1_);}
	.st1{fill:url(#SVGID_2_);}
	.st2{fill:url(#SVGID_3_);}
	.st3{fill:url(#SVGID_4_);}
	.st4{fill:url(#SVGID_5_);}
	.st5{fill:url(#SVGID_6_);}
	.st6{fill:url(#SVGID_7_);}
	.st7{fill:url(#SVGID_8_);}
	.st8{fill:url(#SVGID_9_);}
	.st9{fill:url(#SVGID_10_);}
	.st10{fill:url(#SVGID_11_);}
</style>
<g>
	<g>
		<linearGradient id="SVGID_1_" gradientUnits="userSpaceOnUse" x1="414.3419" y1="494.027" x2="414.3419" y2="360.0461">
			<stop  offset="0" style="stop-color:#FFFFFF"/>
			<stop  offset="0.3547" style="stop-color:#707070"/>
			<stop  offset="0.6872" style="stop-color:#FFFFFF"/>
			<stop  offset="0.718" style="stop-color:#F8F8F8"/>
			<stop  offset="0.7626" style="stop-color:#E5E5E5"/>
			<stop  offset="0.8156" style="stop-color:#C5C5C5"/>
			<stop  offset="0.8749" style="stop-color:#9A9A9A"/>
			<stop  offset="0.9387" style="stop-color:#626262"/>
			<stop  offset="1" style="stop-color:#262626"/>
		</linearGradient>
		<polygon class="st0" points="427.34,394.71 427.34,495.29 416.54,495.29 416.54,400.94 401.34,400.94 401.34,369.38 
			412.13,363.14 412.13,394.71 		"/>
		<linearGradient id="SVGID_2_" gradientUnits="userSpaceOnUse" x1="453.4104" y1="368.015" x2="453.4104" y2="326.5971">
			<stop  offset="0" style="stop-color:#FFFFFF"/>
			<stop  offset="0.3547" style="stop-color:#707070"/>
			<stop  offset="0.6872" style="stop-color:#FFFFFF"/>
			<stop  offset="1" style="stop-color:#262626"/>
		</linearGradient>
		<polygon class="st1" points="458.8,329.73 458.8,363.14 448.02,363.14 448.02,335.96 		"/>
		<linearGradient id="SVGID_3_" gradientUnits="userSpaceOnUse" x1="471.5955" y1="468.2927" x2="470.0782" y2="459.8808">
			<stop  offset="0" style="stop-color:#FFFFFF"/>
			<stop  offset="0.3547" style="stop-color:#707070"/>
			<stop  offset="0.6872" style="stop-color:#FFFFFF"/>
			<stop  offset="1" style="stop-color:#262626"/>
		</linearGradient>
		<polygon class="st2" points="483.21,461.91 472.41,468.15 458.8,468.15 458.8,461.91 		"/>
		<linearGradient id="SVGID_4_" gradientUnits="userSpaceOnUse" x1="488.0579" y1="367.2707" x2="488.0579" y2="320.1733">
			<stop  offset="0" style="stop-color:#FFFFFF"/>
			<stop  offset="0.3547" style="stop-color:#707070"/>
			<stop  offset="0.6872" style="stop-color:#FFFFFF"/>
			<stop  offset="1" style="stop-color:#262626"/>
		</linearGradient>
		<polygon class="st3" points="493.46,329.73 493.46,363.14 482.66,363.14 482.66,335.96 		"/>
		<linearGradient id="SVGID_5_" gradientUnits="userSpaceOnUse" x1="487.7891" y1="405.732" x2="484.9499" y2="389.9912">
			<stop  offset="0" style="stop-color:#FFFFFF"/>
			<stop  offset="0.3547" style="stop-color:#707070"/>
			<stop  offset="0.6872" style="stop-color:#FFFFFF"/>
			<stop  offset="1" style="stop-color:#262626"/>
		</linearGradient>
		<path class="st4" d="M514.27,396.67l-10.79,6.23c-0.22-0.06-0.44-0.13-0.66-0.19c-4.22-1.15-8.68-1.77-13.27-1.77H458.8v-6.23
			h41.55c2.23,0,4.43,0.14,6.58,0.43l0.62-1.41L514.27,396.67z"/>
		<linearGradient id="SVGID_6_" gradientUnits="userSpaceOnUse" x1="441.2945" y1="490.6775" x2="441.2945" y2="578.4694">
			<stop  offset="0" style="stop-color:#FFFFFF"/>
			<stop  offset="0.3547" style="stop-color:#707070"/>
			<stop  offset="0.6872" style="stop-color:#FFFFFF"/>
			<stop  offset="1" style="stop-color:#262626"/>
		</linearGradient>
		<polygon class="st5" points="481.25,562.23 470.46,568.46 450.31,568.46 450.31,533.2 450.36,533.11 450.36,533.09 401.34,533.09 
			401.34,501.52 412.13,495.29 412.13,526.84 461.1,526.84 461.14,526.88 461.1,526.97 461.1,562.23 		"/>
		<linearGradient id="SVGID_7_" gradientUnits="userSpaceOnUse" x1="498.5764" y1="569.7772" x2="498.5764" y2="525.5347">
			<stop  offset="0" style="stop-color:#FFFFFF"/>
			<stop  offset="0.3547" style="stop-color:#707070"/>
			<stop  offset="0.6872" style="stop-color:#FFFFFF"/>
			<stop  offset="1" style="stop-color:#262626"/>
		</linearGradient>
		<polygon class="st6" points="515.9,562.23 505.12,568.46 484.97,568.46 484.97,533.11 481.25,533.11 481.25,526.88 495.75,526.88 
			495.75,562.23 		"/>
		<linearGradient id="SVGID_8_" gradientUnits="userSpaceOnUse" x1="509.8638" y1="532.461" x2="558.3049" y2="504.0493">
			<stop  offset="0" style="stop-color:#FFFFFF"/>
			<stop  offset="0.3547" style="stop-color:#707070"/>
			<stop  offset="0.6872" style="stop-color:#FFFFFF"/>
			<stop  offset="1" style="stop-color:#262626"/>
		</linearGradient>
		<path class="st7" d="M515.9,525.8c7.78-1.27,15.2-3.64,22.06-6.94c-6.71,4.6-14.12,8.22-22.06,10.65V525.8z"/>
		<linearGradient id="SVGID_9_" gradientUnits="userSpaceOnUse" x1="534.483" y1="494.6683" x2="530.2477" y2="365.7271">
			<stop  offset="0" style="stop-color:#FFFFFF"/>
			<stop  offset="0.3547" style="stop-color:#707070"/>
			<stop  offset="0.6872" style="stop-color:#FFFFFF"/>
			<stop  offset="1" style="stop-color:#262626"/>
		</linearGradient>
		<path class="st8" d="M552.95,445.02c0,20.82-12.73,38.74-30.81,46.34c12.15-9.17,20.01-23.74,20.01-40.11
			c0-20.8-12.69-38.69-30.73-46.34L525,376.39l10.8-6.23l-4.48,9.38l-9.11,19.14C540.25,406.33,552.95,424.22,552.95,445.02z"/>
		<g>
			<linearGradient id="SVGID_10_" gradientUnits="userSpaceOnUse" x1="485.942" y1="535.4833" x2="436.9481" y2="263.8553">
				<stop  offset="0" style="stop-color:#9200F7"/>
				<stop  offset="1" style="stop-color:#15B0F8"/>
			</linearGradient>
			<path class="st9" d="M467.64,513.13l8.5-17.83H458.8v-33.39h24.4l10.25-21.52l5.09-10.68H458.8v-35h41.55
				c4.59,0,9.04,0.62,13.26,1.78c0.23,0.06,0.45,0.12,0.67,0.19h0.01l13.69-28.75c-4.61-1.65-9.41-2.91-14.37-3.71v-34.49h-20.15
				v33.42h-14.5v-33.42H458.8v33.42h-46.67v31.56h15.21v100.59h-15.21v31.56h48.97L467.64,513.13z"/>
			<linearGradient id="SVGID_11_" gradientUnits="userSpaceOnUse" x1="535.6509" y1="571.1805" x2="488.9033" y2="312.0061">
				<stop  offset="0" style="stop-color:#9200F7"/>
				<stop  offset="1" style="stop-color:#15B0F8"/>
			</linearGradient>
			<path class="st10" d="M535.8,370.16l-13.59,28.53c18.04,7.64,30.73,25.54,30.73,46.33c0,23.15-15.71,42.69-37.04,48.52
				c-4.22,1.16-8.67,1.78-13.26,1.78h-26.46l-15.03,31.56l-0.05,0.11v35.25h20.16v-35.36h14.5v35.36h20.15V525.8
				c17.3-2.82,32.77-11.05,44.62-22.9c14.81-14.81,23.97-35.27,23.97-57.88C584.5,411.61,564.49,382.88,535.8,370.16z"/>
		</g>
	</g>
	<g>
		<g>
			<path d="M314.44,605.03c4.09,0,7.59,0.42,10.52,1.25c2.93,0.83,5.32,2.12,7.19,3.86c1.87,1.74,3.24,3.96,4.12,6.66
				c0.88,2.7,1.33,5.89,1.33,9.58v10.29c0,3.68-0.44,6.88-1.33,9.57c-0.88,2.7-2.26,4.92-4.12,6.66c-1.87,1.74-4.26,3.03-7.19,3.86
				c-2.93,0.83-6.43,1.25-10.52,1.25h-35.42c-1.51,0-2.27-0.76-2.27-2.27V607.3c0-1.51,0.76-2.27,2.27-2.27H314.44z M288.33,646.51
				c0,0.66,0.33,0.98,0.98,0.98h24.83c2.22,0,4.09-0.2,5.6-0.61c1.51-0.4,2.74-1.06,3.67-1.97c0.93-0.91,1.6-2.12,2.01-3.63
				c0.4-1.51,0.61-3.38,0.61-5.6v-8.33c0-2.22-0.2-4.09-0.61-5.6c-0.4-1.51-1.07-2.73-2.01-3.63c-0.93-0.91-2.16-1.56-3.67-1.97
				c-1.51-0.4-3.38-0.61-5.6-0.61h-24.83c-0.66,0-0.98,0.35-0.98,1.06V646.51z"/>
			<path d="M403.23,605.03c1.16,0,1.74,0.56,1.74,1.67v7.19c0,1.11-0.58,1.67-1.74,1.67h-33.08c-1.97,0-3.59,0.16-4.88,0.49
				c-1.29,0.33-2.32,0.88-3.1,1.67c-0.78,0.78-1.32,1.84-1.63,3.18c-0.3,1.34-0.45,2.99-0.45,4.96v0.76h42.76
				c1.11,0,1.67,0.56,1.67,1.67v5.98c0,1.11-0.56,1.67-1.67,1.67h-42.76v1.29c0,1.97,0.15,3.62,0.45,4.96
				c0.3,1.34,0.84,2.4,1.63,3.18c0.78,0.78,1.82,1.34,3.1,1.67c1.29,0.33,2.91,0.49,4.88,0.49h33.08c1.16,0,1.74,0.56,1.74,1.67
				v7.19c0,1.11-0.58,1.67-1.74,1.67h-33.3c-3.84,0-7.09-0.35-9.76-1.06c-2.67-0.71-4.86-1.85-6.55-3.44
				c-1.69-1.59-2.93-3.66-3.71-6.21c-0.78-2.55-1.17-5.64-1.17-9.27v-13.02c0-3.63,0.39-6.71,1.17-9.23
				c0.78-2.52,2.02-4.58,3.71-6.17c1.69-1.59,3.87-2.75,6.55-3.48c2.67-0.73,5.93-1.1,9.76-1.1H403.23z"/>
			<path d="M459.92,605.03c3.83,0,7.1,0.37,9.8,1.1c2.7,0.73,4.89,1.89,6.58,3.48c1.69,1.59,2.91,3.65,3.67,6.17
				c0.76,2.52,1.14,5.6,1.14,9.23v11.73c0,6.16-1.15,10.79-3.44,13.89c-2.3,3.1-6.12,5.01-11.47,5.71l8.7,12.04
				c0.2,0.25,0.26,0.63,0.19,1.13c-0.08,0.5-0.47,0.76-1.17,0.76h-9.69c-0.66,0-1.11-0.08-1.36-0.23c-0.25-0.15-0.5-0.38-0.76-0.68
				l-8.7-12.64h-16.88c-3.84,0-7.09-0.35-9.76-1.06c-2.67-0.71-4.86-1.85-6.55-3.44c-1.69-1.59-2.93-3.66-3.71-6.21
				c-0.78-2.55-1.17-5.64-1.17-9.27v-11.73c0-3.63,0.39-6.71,1.17-9.23c0.78-2.52,2.02-4.58,3.71-6.17
				c1.69-1.59,3.87-2.75,6.55-3.48c2.67-0.73,5.93-1.1,9.76-1.1H459.92z M426.92,635.91c0,1.97,0.16,3.62,0.49,4.96
				c0.33,1.34,0.87,2.4,1.63,3.18c0.76,0.78,1.78,1.34,3.07,1.67c1.29,0.33,2.91,0.49,4.88,0.49h22.48c1.97,0,3.6-0.16,4.88-0.49
				c1.29-0.33,2.31-0.88,3.07-1.67c0.76-0.78,1.3-1.84,1.63-3.18c0.33-1.34,0.49-2.99,0.49-4.96v-10.07c0-1.97-0.16-3.62-0.49-4.96
				c-0.33-1.34-0.87-2.4-1.63-3.18c-0.76-0.78-1.78-1.34-3.07-1.67c-1.29-0.33-2.91-0.49-4.88-0.49h-22.48
				c-1.97,0-3.6,0.16-4.88,0.49c-1.29,0.33-2.31,0.88-3.07,1.67c-0.76,0.78-1.3,1.84-1.63,3.18c-0.33,1.34-0.49,2.99-0.49,4.96
				V635.91z"/>
			<path d="M502.53,605.03c1.11,0,1.67,0.56,1.67,1.67v30.2c0,2.02,0.16,3.7,0.49,5.03c0.33,1.34,0.87,2.4,1.63,3.18
				c0.76,0.78,1.78,1.34,3.07,1.67c1.29,0.33,2.91,0.49,4.88,0.49h20.97c1.97,0,3.6-0.16,4.88-0.49c1.29-0.33,2.31-0.88,3.07-1.67
				c0.76-0.78,1.29-1.84,1.59-3.18c0.3-1.34,0.45-3.01,0.45-5.03v-30.2c0-1.11,0.55-1.67,1.67-1.67h8.25c1.11,0,1.67,0.56,1.67,1.67
				v31.34c0,3.63-0.38,6.72-1.14,9.27c-0.76,2.55-1.98,4.62-3.67,6.21c-1.69,1.59-3.89,2.74-6.58,3.44c-2.7,0.71-5.97,1.06-9.8,1.06
				h-21.8c-3.84,0-7.09-0.35-9.76-1.06c-2.67-0.71-4.86-1.85-6.55-3.44c-1.69-1.59-2.93-3.66-3.71-6.21
				c-0.78-2.55-1.17-5.64-1.17-9.27V606.7c0-1.11,0.58-1.67,1.74-1.67H502.53z"/>
			<path d="M578.9,605.03c1.11,0,1.67,0.56,1.67,1.67v49.65c0,1.11-0.56,1.67-1.67,1.67h-8.17c-1.16,0-1.74-0.55-1.74-1.67V606.7
				c0-1.11,0.58-1.67,1.74-1.67H578.9z"/>
			<path d="M650.51,605.03c1.16,0,1.74,0.56,1.74,1.67v7.42c0,1.16-0.58,1.74-1.74,1.74h-23.77v40.5c0,1.11-0.56,1.67-1.67,1.67
				h-8.25c-1.11,0-1.67-0.55-1.67-1.67v-40.5h-23.77c-1.16,0-1.74-0.58-1.74-1.74v-7.42c0-1.11,0.58-1.67,1.74-1.67H650.51z"/>
			<path d="M668.22,605.03c0.81,0,1.41,0.3,1.82,0.91l20.21,27.32l20.36-27.32c0.4-0.61,1.01-0.91,1.82-0.91h9.92
				c0.4,0,0.68,0.16,0.83,0.49c0.15,0.33,0.1,0.67-0.15,1.02l-27.17,35.27v14.53c0,1.11-0.56,1.67-1.67,1.67H686
				c-1.16,0-1.74-0.55-1.74-1.67v-14.53l-26.87-35.27c-0.25-0.35-0.32-0.69-0.19-1.02c0.12-0.33,0.42-0.49,0.87-0.49H668.22z"/>
		</g>
	</g>
</g>
</svg>
